<?xml version="1.0" encoding="utf-8"?>
<svg version="1.0" width="300.000000pt" height="300.000000pt" viewBox="0 0 300.000000 300.000000" preserveAspectRatio="xMidYMid meet" xmlns="http://www.w3.org/2000/svg" xmlns:xlink="http://www.w3.org/1999/xlink" xmlns:bx="https://boxy-svg.com">
  <style>
    #bback, #bfronttop, #ktop, #kright, #kbottom, #bfrontbottom  {
      stroke-dasharray: 750;
      stroke-dashoffset: 750;
      animation: dash 1s linear forwards;
    }
    #ktop, #kright, #kbottom {
      clip-path: url(#kclip);
    }
    #kright{
      animation-delay: 0.8s;
    }
    #ktop{
      animation-delay: 1.1s;
    }
    #kbottom{
      animation-delay: 1.3s;
    }
    #bback{
      animation-delay: 1.5s;
      clip-path: url(#bbackclip);
    }
    #bfronttop{
      animation-delay: 1.7s;
      clip-path: url(#bfronttopclip);
    }
    #bfrontbottom{
      animation-delay: 1.95s;
      clip-path: url(#bfrontbottomclip);
    }
    @keyframes dash {
      from{
        stroke-dashoffset: 750;
      }
      to {
        stroke-dashoffset: 0;
      }
    }
  </style>
  <defs>
    <linearGradient id="gradient-2" bx:pinned="true">
      <title>bleftgrad</title>
      <stop offset="0.007" style="stop-color: rgb(45, 103, 197);"/>
      <stop offset="0.5" style="stop-color: rgb(135, 171, 228);"/>
      <stop offset="0.999" style="stop-color: rgb(44, 102, 196);"/>
    </linearGradient>
    <linearGradient id="gradient-7">
      <title>brightgrad</title>
      <stop offset="0" style="stop-color: rgb(135, 171, 228);"/>
      <stop offset="1" style="stop-color: rgb(44, 102, 196);"/>
    </linearGradient>
    <linearGradient id="gradient-5">
      <title>krightgrad</title>
      <stop style="stop-color: rgb(208, 113, 25);" offset="0.007"/>
      <stop style="stop-color: rgb(236, 165, 99);" offset="0.5"/>
      <stop style="stop-color: rgb(208, 113, 25);" offset="0.999"/>
    </linearGradient>
    <linearGradient id="gradient-6">
      <title>kleftgrad</title>
      <stop offset="0" style="stop-color: rgb(208, 113, 25);"/>
      <stop offset="1" style="stop-color: rgb(236, 165, 99);"/>
    </linearGradient>
    <linearGradient id="gradient-2-1" gradientUnits="userSpaceOnUse" x1="130.244" y1="12.176" x2="130.244" y2="280.53" xlink:href="#gradient-2"/>
    <linearGradient id="gradient-5-0" gradientUnits="userSpaceOnUse" x1="114.248" y1="11.423" x2="114.248" y2="278.648" xlink:href="#gradient-5"/>
    <linearGradient id="gradient-6-0" gradientUnits="userSpaceOnUse" x1="73.788" y1="6.907" x2="73.788" y2="141.649" gradientTransform="matrix(0.861831, -0.507195, 0.517594, 0.879502, -30.649211, 42.685233)" xlink:href="#gradient-6"/>
    <linearGradient id="gradient-6-1" gradientUnits="userSpaceOnUse" x1="76.987" y1="136.379" x2="76.987" y2="295.585" gradientTransform="matrix(-0.929102, -0.369823, 0.387069, -0.972426, 64.36245, 454.295721)" xlink:href="#gradient-6"/>
    <radialGradient id="gradient-7-0" gradientUnits="userSpaceOnUse" cx="144.948" cy="136.054" r="74.567" gradientTransform="matrix(2.465141, -0.010312, 0.006543, 1.563982, -213.259464, -75.237042)" xlink:href="#gradient-7"/>
    <clipPath id="kclip">
      <path d="M 715 5848 C 675 5808 1594 4070 2001 3417 L 2105 3250 L 2049 3090 C 2018 3002 1872 2665 1724 2340 C 1234 1262 894 319 901 60 C 902 16 1057 326 1121 500 C 1194 700 1438 1308 1530 1520 C 1570 1614 1684 1893 1783 2140 C 1963 2590 2114 2959 2180 3110 C 2213 3187 2214 3137 2204 1859 C 2195 601 2200 380 2238 380 C 2273 380 2307 1173 2331 2550 C 2339 2968 2351 3576 2359 3900 C 2367 4225 2372 4765 2371 5100 L 2363.015 5723.969 L 2345.955 5750.924 C 2266.955 5762.924 2242 5666 2228 4445 C 2221 3799 2213 3267 2210 3264 C 2207 3260 2160 3350 2105 3464 C 1775 4154 760 5894 715 5848 Z" transform="translate(0.000000,300.000000) scale(0.050000,-0.050000)"/>
    </clipPath>
    <clipPath id="bfronttopclip">
      <path d="M 3240 5946 C 3096 5932 2822 5855 2791 5821 C 2731 5755 2791 5738 2971 5770 C 3739 5907 4465 5632 4714 5108 C 5079 4343 4207 3351 3149 3327 C 2994 3323 2859 3319 2849 3319 C 2807 3315 2999 3256 3136 3229 C 3243 3208 3860 3362 3960 3397 C 4146 3462 4483 3731 4647 3945 C 5413 4947 4612 6087 3240 5946 Z" transform="translate(0.000000,300.000000) scale(0.050000,-0.050000)"/>
    </clipPath>
    <clipPath id="bfrontbottomclip">
      <path d="M3240 5946 c-144 -14 -418 -91 -449 -125 -60 -66 0 -83 180 -51 768 137 1494 -138 1743 -662 365 -765 -507 -1757 -1565 -1781 -155 -4 -290 -8 -300 -8 -42 -4 150 -63 287 -90 107 -21 223 -25 440 -16 843 35 1606 -292 1880 -807 627 -1182 -1143 -2413 -2664 -1854 -107 40 -136 43 -146 15 -7 -21 61 -59 294 -163 939 -417 2387 172 2733 1111 310 842 -482 1750 -1588 1819 -194 12 -225 28 -125 63 186 65 523 334 687 548 766 1002 -35 2142 -1407 2001z" transform="translate(0.000000,300.000000) scale(0.050000,-0.050000)"/>
    </clipPath>

    <clipPath id="bbackclip">
      <path d="M 2604 5735 C 2532 5647 2496 323 2568 402 C 2572 406 2601.955 502.985 2608.955 606.985 C 2615.955 711.985 2605 835 2610 890 C 2619 991 2631 1491 2650 2560 C 2656 2885 2665 3290 2670 3460 C 2680 3791 2706 5097 2706 5230 C 2702 5703 2701 5718 2662 5739 C 2635 5753 2618 5752 2604 5735 Z" transform="translate(0.000000,300.000000) scale(0.050000,-0.050000)"/>
    </clipPath>

    <radialGradient id="gradient-7-1" gradientUnits="userSpaceOnUse" cx="158.326" cy="133.973" r="74.562" gradientTransform="matrix(2.281778, -0.009898, 0.004338, 0.99999, -203.519989, 1.568356)" xlink:href="#gradient-7"/>
  </defs>
  <path id="bfronttop" style="fill-opacity: 0; stroke-linecap: round; stroke-width: 13px; fill: rgb(186, 218, 85); stroke: url(#gradient-7-0);" d="M 139.518 10.305 C 147.755 6.187 160.708 7.438 171.222 7.438 C 173.611 7.438 179.544 6.64 180.864 7.96 C 181.993 9.089 185.728 7.612 186.857 8.741 C 187.682 9.567 190.201 8.698 191.026 9.523 C 192.071 10.568 194.78 9.628 195.717 10.565 C 196.281 11.13 198.279 10.261 198.844 10.826 C 200.321 12.303 204.142 11.434 205.619 12.911 C 207.718 15.01 212.456 14.536 214.479 16.559 C 214.893 16.973 216.043 16.559 216.564 17.08 C 218.344 18.861 221.819 18.948 223.599 20.728 C 230.054 27.183 234.945 35.341 238.974 43.399 C 240.586 46.624 243.143 53.708 243.143 57.731 C 243.143 59.829 243.474 63.655 242.361 64.767 C 241.363 65.766 242.318 68.719 241.319 69.718 C 239.842 71.195 241.493 75.798 240.016 77.275 C 239.712 77.579 240.32 78.795 240.016 79.099 C 238.543 80.572 239.82 84.506 238.453 85.874 C 237.758 86.569 238.887 89.088 238.192 89.783 C 229.561 98.413 221.49 109.091 213.176 117.405 C 211.023 119.558 206.735 119.416 204.577 121.574 C 201.297 124.854 195.996 125.725 192.59 129.131 C 191.213 130.508 187.724 130.61 186.336 131.998 C 185.163 133.17 180.994 131.346 179.821 132.519 C 178.735 133.605 174.914 131.954 173.828 133.04 C 173.133 133.735 171.135 133.127 170.44 133.822 C 169.035 135.227 162.601 135.646 160.277 135.646 C 157.499 135.646 155.675 136.167 152.981 136.167 C 152.764 136.167 140.965 134.662 140.965 134.662"/>
  <line id="bback" style="stroke-width: 8px; stroke-linecap: round; stroke: url(#gradient-2-1);" x1="132.126" y1="12.176" x2="128.362" y2="280.53"/>
  <line id="kright" style="stroke-width: 11px; stroke-linecap: round; stroke: url(#gradient-5-0);" x1="115.565" y1="11.423" x2="112.931" y2="278.648"/>
  <line id="ktop" style="stroke-linecap: round; stroke-width: 12px; stroke: url(#gradient-6-0);" x1="112.93056343097521" y1="141.64854410349147" x2="34.645" y2="6.907"/>
  <line id="kbottom" style="stroke-linecap: round; stroke-width: 12px; stroke: url(#gradient-6-1);" x1="108.79046721620472" y1="136.37933073923818" x2="45.184" y2="295.585"/>
  <path id="bfrontbottom" d="M 142.804 135.219 C 149.286 135.219 161.891 137.064 169.373 137.064 C 171.282 137.064 176.421 137.765 177.491 136.695 C 179.09 135.096 184.01 136.818 185.609 135.219 C 185.983 134.845 188.711 135.219 189.299 135.219 C 192.749 135.219 199.298 134.886 201.107 136.695 C 202.051 137.639 205.729 136.52 206.642 137.433 C 209.225 140.016 216.236 138.171 218.819 140.754 C 220.787 142.722 227.552 139.893 229.52 141.861 C 230.627 142.968 233.21 142.599 234.317 143.706 C 237.339 146.728 242.129 147.828 245.387 151.087 C 249.256 154.955 257.387 155.336 261.255 159.205 C 265.451 163.402 268.582 167.955 271.587 173.965 C 272.683 176.157 274.508 177.624 276.015 179.131 C 277.719 180.835 276.409 185.798 278.229 187.618 C 282.634 192.023 281.919 202.191 281.919 210.496 C 281.919 213.78 283.235 219.881 281.181 221.935 C 280.566 222.55 281.427 224.641 280.812 225.256 C 277.719 228.349 275.916 233.842 272.694 237.064 C 270.016 239.742 266.486 242.165 263.838 244.813 C 262.542 246.109 261.344 249.152 260.148 250.348 C 258.36 252.136 255.319 253.332 253.506 255.146 C 250.821 257.831 250.014 261.958 247.601 264.371 C 246.31 265.662 242.62 264.555 241.328 265.847 C 240.037 267.138 237.085 266.769 235.793 268.061 C 234.133 269.721 230.443 269.352 228.782 271.013 C 224.786 275.009 218.194 274.958 214.022 279.131 C 213.038 280.115 209.471 278.516 208.487 279.5 C 205.591 282.396 195.902 279.17 192.989 282.083 C 192.465 282.607 188.646 282.083 187.823 282.083 C 183.773 282.083 175.246 283.897 172.694 281.345 C 170.961 279.612 163.662 280.238 160.517 280.238 C 159.811 280.238 156.538 280.687 156.089 280.238 C 155.105 279.254 152.275 280.115 151.292 279.131 C 149.841 277.681 147.043 278.204 145.756 276.917 C 144.192 275.352 135.25 271.382 133.21 271.382" style="fill: rgb(216, 216, 216); fill-opacity: 0; stroke-width: 13px; stroke: url(#gradient-7-1); stroke-linecap: round;"/>
</svg>